M48
;DRILL file {KiCad 4.0.2-stable} date 12/4/2016 4:24:41 PM
;FORMAT={-:-/ absolute / inch / decimal}
FMAT,2
INCH,TZ
T1C0.020
T2C0.031
T3C0.032
T4C0.039
T5C0.040
T6C0.051
T7C0.118
%
G90
G05
M72
T1
X3.8Y-2.15
X3.8Y-2.9
X3.8Y-3.6
X3.8Y-4.35
X3.9Y-2.25
X3.9Y-3.
X3.9Y-3.7
X3.9Y-4.45
X4.Y-2.15
X4.Y-2.9
X4.Y-3.6
X4.Y-4.35
T2
X5.9Y-3.75
X5.9Y-3.85
X5.9Y-3.95
X5.9Y-4.05
X5.9Y-4.15
X5.9Y-4.25
X5.9Y-4.35
X5.9Y-4.45
X5.9Y-4.55
X5.9Y-4.65
X5.9Y-4.75
X5.9Y-4.85
X5.9Y-4.95
X5.9Y-5.05
X6.5Y-3.75
X6.5Y-3.85
X6.5Y-3.95
X6.5Y-4.05
X6.5Y-4.15
X6.5Y-4.25
X6.5Y-4.35
X6.5Y-4.45
X6.5Y-4.55
X6.5Y-4.65
X6.5Y-4.75
X6.5Y-4.85
X6.5Y-4.95
X6.5Y-5.05
T3
X3.9Y-2.4
X3.9Y-3.15
X3.9Y-3.85
X4.1Y-2.4
X4.1Y-3.15
X4.1Y-3.85
X4.7Y-2.2
X4.7Y-4.05
X4.8Y-2.2
X4.8Y-4.25
X5.Y-2.2
X5.Y-4.15
X5.1Y-2.2
X5.3Y-2.2
X6.4Y-3.7
X6.4Y-3.95
X6.4Y-4.05
X6.4Y-4.15
T5
X4.5Y-2.05
X4.6Y-2.05
X4.7Y-2.05
X4.8Y-2.05
X4.9Y-2.05
X5.Y-2.05
X5.1Y-2.05
X5.2Y-2.05
X5.3Y-2.05
X5.4Y-2.05
X5.4Y-4.65
X5.4Y-4.8
X5.4Y-4.95
X5.4Y-5.1
X5.5Y-4.65
X5.5Y-4.8
X5.5Y-4.95
X5.5Y-5.1
X5.6Y-4.65
X5.6Y-4.8
X5.6Y-4.95
X5.6Y-5.1
X6.7Y-3.75
X6.7Y-3.85
X6.8Y-3.75
X6.8Y-3.85
X6.8Y-4.25
X6.8Y-4.35
X6.8Y-4.45
T6
X4.45Y-5.1
X4.6469Y-5.1
T7
X4.903Y-2.7019
X5.103Y-4.7519
X6.203Y-4.7519
X6.803Y-2.7519
T4
X3.8756Y-4.7319G85X3.9543Y-4.7319
G05
X3.8756Y-4.9681G85X3.9543Y-4.9681
G05
X4.1Y-4.8894G85X4.1Y-4.8106
G05
T0
M30
